{
	"asset": {
		"generator": "Blocks",
		"version": "1.0.2",
		"copyright": "Unknown"
	},
	"buffers": {
		"model": {
			"byteLength": 851028,
			"type": "arraybuffer",
			"uri": "model.bin"
		}
	},
	"accessors": {
		"accessor_position_m0-PolyPaper20_-19388": {
			"bufferView": "vec3BufferView",
			"byteOffset": 0,
			"byteStride": 12,
			"componentType": 5126,
			"count": 9972,
			"max": [ 3.266464, 2.330654, 1.481037 ],
			"min": [ -2.282891, -3.57577, -2.28338 ],
			"type": "VEC3"
		 },
		"accessor_normal_m0-PolyPaper20_-19388": {
			"bufferView": "vec3BufferView",
			"byteOffset": 119664,
			"byteStride": 12,
			"componentType": 5126,
			"count": 9972,
			"max": [ 0.9996858, 0.9999906, 0.9998141 ],
			"min": [ -0.997622, -0.9995186, -0.9999642 ],
			"type": "VEC3"
		 },
		"accessor_color_m0-PolyPaper20_-19388": {
			"bufferView": "vec4BufferView",
			"byteOffset": 0,
			"byteStride": 16,
			"componentType": 5126,
			"count": 9972,
			"max": [ 1, 0.6, 0.282353, 1 ],
			"min": [ 0.4745098, 0.3333333, 0, 1 ],
			"type": "VEC4"
		 },
		"accessor_indices_0_m0-PolyPaper20_-19388": {
			"bufferView": "ushortBufferView",
			"byteOffset": 0,
			"byteStride": 0,
			"componentType": 5123,
			"count": 11352,
			"max": [ 9971 ],
			"min": [ 0 ],
			"type": "SCALAR"
		 },
		"accessor_position_m1-PolyPaper13_-19390": {
			"bufferView": "vec3BufferView",
			"byteOffset": 239328,
			"byteStride": 12,
			"componentType": 5126,
			"count": 9980,
			"max": [ 0.7018551, 1.828649, 1.663028 ],
			"min": [ -2.588192, -1.993542, -2.778446 ],
			"type": "VEC3"
		 },
		"accessor_normal_m1-PolyPaper13_-19390": {
			"bufferView": "vec3BufferView",
			"byteOffset": 359088,
			"byteStride": 12,
			"componentType": 5126,
			"count": 9980,
			"max": [ 0.9990436, 0.9997153, 0.9999391 ],
			"min": [ -0.9991082, -0.9997524, -0.9987328 ],
			"type": "VEC3"
		 },
		"accessor_color_m1-PolyPaper13_-19390": {
			"bufferView": "vec4BufferView",
			"byteOffset": 159552,
			"byteStride": 16,
			"componentType": 5126,
			"count": 9980,
			"max": [ 1, 0.6, 0.282353, 1 ],
			"min": [ 0.4745098, 0.3333333, 0, 1 ],
			"type": "VEC4"
		 },
		"accessor_indices_0_m1-PolyPaper13_-19390": {
			"bufferView": "ushortBufferView",
			"byteOffset": 22704,
			"byteStride": 0,
			"componentType": 5123,
			"count": 11436,
			"max": [ 9979 ],
			"min": [ 0 ],
			"type": "SCALAR"
		 },
		"accessor_position_m2-PolyPaper20_-19462": {
			"bufferView": "vec3BufferView",
			"byteOffset": 478848,
			"byteStride": 12,
			"componentType": 5126,
			"count": 172,
			"max": [ 0.2471509, 1.722377, -0.210346 ],
			"min": [ -0.2022738, -0.211015, -1.20762 ],
			"type": "VEC3"
		 },
		"accessor_normal_m2-PolyPaper20_-19462": {
			"bufferView": "vec3BufferView",
			"byteOffset": 480912,
			"byteStride": 12,
			"componentType": 5126,
			"count": 172,
			"max": [ 0.965865, 0.9078146, 0.890887 ],
			"min": [ -0.8946921, -0.959689, -0.9686381 ],
			"type": "VEC3"
		 },
		"accessor_color_m2-PolyPaper20_-19462": {
			"bufferView": "vec4BufferView",
			"byteOffset": 319232,
			"byteStride": 16,
			"componentType": 5126,
			"count": 172,
			"max": [ 0.4745098, 0.3333333, 0.282353, 1 ],
			"min": [ 0.4745098, 0.3333333, 0.282353, 1 ],
			"type": "VEC4"
		 },
		"accessor_indices_0_m2-PolyPaper20_-19462": {
			"bufferView": "ushortBufferView",
			"byteOffset": 45576,
			"byteStride": 0,
			"componentType": 5123,
			"count": 246,
			"max": [ 171 ],
			"min": [ 0 ],
			"type": "SCALAR"
		 }
	},
	"bufferViews": {
		"ushortBufferView": {
			"buffer": "model",
			"byteLength": 46068,
			"byteOffset": 0,
			"target": 34963
		},
		"vec3BufferView": {
			"buffer": "model",
			"byteLength": 482976,
			"byteOffset": 46068,
			"target": 34962
		},
		"vec4BufferView": {
			"buffer": "model",
			"byteLength": 321984,
			"byteOffset": 529044,
			"target": 34962
		}
	},
	"meshes": {
		"mesh_m0-PolyPaper20_-19388": {
			"name": "mesh_m0-PolyPaper20_-19388",
			"primitives": [
				{
					"attributes": {
						"POSITION": "accessor_position_m0-PolyPaper20_-19388",
						"NORMAL": "accessor_normal_m0-PolyPaper20_-19388",
						"COLOR": "accessor_color_m0-PolyPaper20_-19388"
					},
					"indices": "accessor_indices_0_m0-PolyPaper20_-19388",
					"material": "material_mat20",
					"mode": 4
				}
			]
		},
		"mesh_m1-PolyPaper13_-19390": {
			"name": "mesh_m1-PolyPaper13_-19390",
			"primitives": [
				{
					"attributes": {
						"POSITION": "accessor_position_m1-PolyPaper13_-19390",
						"NORMAL": "accessor_normal_m1-PolyPaper13_-19390",
						"COLOR": "accessor_color_m1-PolyPaper13_-19390"
					},
					"indices": "accessor_indices_0_m1-PolyPaper13_-19390",
					"material": "material_mat13",
					"mode": 4
				}
			]
		},
		"mesh_m2-PolyPaper20_-19462": {
			"name": "mesh_m2-PolyPaper20_-19462",
			"primitives": [
				{
					"attributes": {
						"POSITION": "accessor_position_m2-PolyPaper20_-19462",
						"NORMAL": "accessor_normal_m2-PolyPaper20_-19462",
						"COLOR": "accessor_color_m2-PolyPaper20_-19462"
					},
					"indices": "accessor_indices_0_m2-PolyPaper20_-19462",
					"material": "material_mat20",
					"mode": 4
				}
			]
		}
	},
	"shaders": {
		"vertex_mat20": {
			"type": 35633,
			"uri": "https://vr.google.com/shaders/w/vs.glsl"
		},
		"fragment_mat20": {
			"type": 35632,
			"uri": "https://vr.google.com/shaders/w/fs.glsl"
		},
		"vertex_mat13": {
			"type": 35633,
			"uri": "https://vr.google.com/shaders/w/vs.glsl"
		},
		"fragment_mat13": {
			"type": 35632,
			"uri": "https://vr.google.com/shaders/w/fs.glsl"
		}
	},
	"programs": {
		"program_mat20": {
			"attributes": [
				"a_position",
				"a_normal",
				"a_color"				
			],
			"vertexShader": "vertex_mat20",
			"fragmentShader": "fragment_mat20"
		},
		"program_mat13": {
			"attributes": [
				"a_position",
				"a_normal",
				"a_color"				
			],
			"vertexShader": "vertex_mat13",
			"fragmentShader": "fragment_mat13"
		}
	},
	"techniques": {
		"technique_mat20": {
			"program": "program_mat20",
			"extras": {"gvrss" : "https://vr.google.com/shaders/w/gvrss/paper.json"},
			"parameters": {
				"position": {
					"type": 35665,
					"semantic": "POSITION"
				},
				"normal": {
					"type": 35665,
					"semantic": "NORMAL"
				},
				"color": {
					"type": 35666,
					"semantic": "COLOR"
				},
				"modelViewMatrix": {
					"type": 35676,
					"semantic": "MODELVIEW"
				},
				"projectionMatrix": {
					"type": 35676,
					"semantic": "PROJECTION"
				},
				"normalMatrix": {
					"type": 35675,
					"semantic": "MODELVIEWINVERSETRANSPOSE"
				},
				"color": {
					"type": 35666
				},
				"roughness": {
					"type": 5126
				},
				"metallic": {
					"type": 5126
				},
				"light0Pos": {
					"type": 35666
				},
				"light0Color": {
					"type": 35666
				},
				"light1Pos": {
					"type": 35666
				},
				"light1Color": {
					"type": 35666
				}				
			},
			"attributes": {
				"a_position": "position",
				"a_normal": "normal",
				"a_color": "color"				
			},
			"uniforms": {
				"u_modelViewMatrix": "modelViewMatrix",
				"u_projectionMatrix": "projectionMatrix",
				"u_normalMatrix": "normalMatrix",
				"u_color": "color",
				"u_roughness": "roughness",
				"u_metallic": "metallic",
				"u_light0Pos": "light0Pos",
				"u_light0Color": "light0Color",
				"u_light1Pos": "light1Pos",
				"u_light1Color": "light1Color"				
			},
			"states": {
				"enable": [
					2929,
					2884
				],
				"functions": {
					"cullFace": [1029]
				}
			}
		},
		"technique_mat13": {
			"program": "program_mat13",
			"extras": {"gvrss" : "https://vr.google.com/shaders/w/gvrss/paper.json"},
			"parameters": {
				"position": {
					"type": 35665,
					"semantic": "POSITION"
				},
				"normal": {
					"type": 35665,
					"semantic": "NORMAL"
				},
				"color": {
					"type": 35666,
					"semantic": "COLOR"
				},
				"modelViewMatrix": {
					"type": 35676,
					"semantic": "MODELVIEW"
				},
				"projectionMatrix": {
					"type": 35676,
					"semantic": "PROJECTION"
				},
				"normalMatrix": {
					"type": 35675,
					"semantic": "MODELVIEWINVERSETRANSPOSE"
				},
				"color": {
					"type": 35666
				},
				"roughness": {
					"type": 5126
				},
				"metallic": {
					"type": 5126
				},
				"light0Pos": {
					"type": 35666
				},
				"light0Color": {
					"type": 35666
				},
				"light1Pos": {
					"type": 35666
				},
				"light1Color": {
					"type": 35666
				}				
			},
			"attributes": {
				"a_position": "position",
				"a_normal": "normal",
				"a_color": "color"				
			},
			"uniforms": {
				"u_modelViewMatrix": "modelViewMatrix",
				"u_projectionMatrix": "projectionMatrix",
				"u_normalMatrix": "normalMatrix",
				"u_color": "color",
				"u_roughness": "roughness",
				"u_metallic": "metallic",
				"u_light0Pos": "light0Pos",
				"u_light0Color": "light0Color",
				"u_light1Pos": "light1Pos",
				"u_light1Color": "light1Color"				
			},
			"states": {
				"enable": [
					2929,
					2884
				],
				"functions": {
					"cullFace": [1029]
				}
			}
		}
	},
	"materials": {
		"material_mat20": {
			"technique": "technique_mat20",
			"values": {
				"color": [0.4745098, 0.3333333, 0.282353, 1],
				"roughness": 0.72,
				"metallic": 0,
				"light0Pos": [-0.02, 4.11, -0.54, 0],
				"light0Color": [0.8, 0.8, 0.8, 0],
				"light1Pos": [0.02, -4.11, 0.54, 0],
				"light1Color": [0.64, 0.5647059, 0.5647059, 0]				
			},
			"name": "material_mat20"
		},
		"material_mat13": {
			"technique": "technique_mat13",
			"values": {
				"color": [1, 0.5960785, 0, 1],
				"roughness": 0.72,
				"metallic": 0,
				"light0Pos": [-0.02, 4.11, -0.54, 0],
				"light0Color": [0.8, 0.8, 0.8, 0],
				"light1Pos": [0.02, -4.11, 0.54, 0],
				"light1Color": [0.64, 0.5647059, 0.5647059, 0]				
			},
			"name": "material_mat13"
		}
	},
	"nodes": {
		"node_MeshObject2104761984-PolyPaper20": {
			"name": "node_MeshObject2104761984-PolyPaper20",
			"meshes": [
				"mesh_m0-PolyPaper20_-19388"
			],
			"matrix": [1, 0, 0, 0, 0, 1, 0, 0, 0, 0, 1, 0, 0, 0, 0, 1]
		},
		"node_MeshObject-1671485248-PolyPaper13": {
			"name": "node_MeshObject-1671485248-PolyPaper13",
			"meshes": [
				"mesh_m1-PolyPaper13_-19390"
			],
			"matrix": [1, 0, 0, 0, 0, 1, 0, 0, 0, 0, 1, 0, 0, 0, 0, 1]
		},
		"node_MeshObject589827840-PolyPaper20": {
			"name": "node_MeshObject589827840-PolyPaper20",
			"meshes": [
				"mesh_m2-PolyPaper20_-19462"
			],
			"matrix": [1, 0, 0, 0, 0, 1, 0, 0, 0, 0, 1, 0, 0, 0, 0, 1]
		}
	},
	"scene": "defaultScene",
	"scenes": {
		"defaultScene": {
			"nodes": [
				"node_MeshObject2104761984-PolyPaper20",
				"node_MeshObject-1671485248-PolyPaper13",
				"node_MeshObject589827840-PolyPaper20"
			],
			"extras": {

			}
		}
	}
}