{
	"asset": {
		"generator": "Blocks 4.0.1_OVR_RC0",
		"version": "1.1",
		"copyright": "Unknown"
	},
	"buffers": {
		"model": {
			"byteLength": 149196,
			"type": "arraybuffer",
			"uri": "model.bin"
		}
	},
	"accessors": {
		"accessor_position_m0-PolyPaper17_-46282": {
			"bufferView": "vec3BufferView",
			"byteOffset": 0,
			"byteStride": 12,
			"componentType": 5126,
			"count": 3436,
			"max": [ 0.3918135, 1.049132, -0.1826408 ],
			"min": [ -0.2299663, 0.7800903, -0.2581509 ],
			"type": "VEC3"
		 },
		"accessor_normal_m0-PolyPaper17_-46282": {
			"bufferView": "vec3BufferView",
			"byteOffset": 41232,
			"byteStride": 12,
			"componentType": 5126,
			"count": 3436,
			"max": [ 1, 1, 1 ],
			"min": [ -1, -1, -1 ],
			"type": "VEC3"
		 },
		"accessor_color_m0-PolyPaper17_-46282": {
			"bufferView": "vec4BufferView",
			"byteOffset": 0,
			"byteStride": 16,
			"componentType": 5126,
			"count": 3436,
			"max": [ 0.9568627, 0.8470588, 0.8980392, 1 ],
			"min": [ 0.01176471, 0.1019608, 0.1019608, 1 ],
			"type": "VEC4"
		 },
		"accessor_indices_0_m0-PolyPaper17_-46282": {
			"bufferView": "ushortBufferView",
			"byteOffset": 0,
			"byteStride": 0,
			"componentType": 5123,
			"count": 5562,
			"max": [ 3435 ],
			"min": [ 0 ],
			"type": "SCALAR"
		 },
		"accessor_position_m1-PolyGlass24_-46288": {
			"bufferView": "vec3BufferView",
			"byteOffset": 82464,
			"byteStride": 12,
			"componentType": 5126,
			"count": 14,
			"max": [ 0.276126, 1.017148, -0.1948127 ],
			"min": [ -0.1002775, 0.8068738, -0.1975814 ],
			"type": "VEC3"
		 },
		"accessor_normal_m1-PolyGlass24_-46288": {
			"bufferView": "vec3BufferView",
			"byteOffset": 82632,
			"byteStride": 12,
			"componentType": 5126,
			"count": 14,
			"max": [ -0.005131966, 0.003988023, 0.9999789 ],
			"min": [ -0.005132257, 0.003987389, 0.9999788 ],
			"type": "VEC3"
		 },
		"accessor_color_m1-PolyGlass24_-46288": {
			"bufferView": "vec4BufferView",
			"byteOffset": 54976,
			"byteStride": 16,
			"componentType": 5126,
			"count": 14,
			"max": [ 1, 1, 1, 1 ],
			"min": [ 1, 1, 1, 1 ],
			"type": "VEC4"
		 },
		"accessor_indices_0_m1-PolyGlass24_-46288": {
			"bufferView": "ushortBufferView",
			"byteOffset": 11124,
			"byteStride": 0,
			"componentType": 5123,
			"count": 36,
			"max": [ 13 ],
			"min": [ 0 ],
			"type": "SCALAR"
		 }
	},
	"bufferViews": {
		"ushortBufferView": {
			"buffer": "model",
			"byteLength": 11196,
			"byteOffset": 0,
			"target": 34963
		},
		"vec3BufferView": {
			"buffer": "model",
			"byteLength": 82800,
			"byteOffset": 11196,
			"target": 34962
		},
		"vec4BufferView": {
			"buffer": "model",
			"byteLength": 55200,
			"byteOffset": 93996,
			"target": 34962
		}
	},
	"meshes": {
		"mesh_m0-PolyPaper17_-46282": {
			"name": "mesh_m0-PolyPaper17_-46282",
			"primitives": [
				{
					"attributes": {
						"POSITION": "accessor_position_m0-PolyPaper17_-46282",
						"NORMAL": "accessor_normal_m0-PolyPaper17_-46282",
						"COLOR": "accessor_color_m0-PolyPaper17_-46282"
					},
					"indices": "accessor_indices_0_m0-PolyPaper17_-46282",
					"material": "material_mat17",
					"mode": 4
				}
			]
		},
		"mesh_m1-PolyGlass24_-46288": {
			"name": "mesh_m1-PolyGlass24_-46288",
			"primitives": [
				{
					"attributes": {
						"POSITION": "accessor_position_m1-PolyGlass24_-46288",
						"NORMAL": "accessor_normal_m1-PolyGlass24_-46288",
						"COLOR": "accessor_color_m1-PolyGlass24_-46288"
					},
					"indices": "accessor_indices_0_m1-PolyGlass24_-46288",
					"material": "material_mat24",
					"mode": 4
				}
			]
		}
	},
	"shaders": {
		"vertex_mat17": {
			"type": 35633,
			"uri": "https://vr.google.com/shaders/w/vs.glsl"
		},
		"fragment_mat17": {
			"type": 35632,
			"uri": "https://vr.google.com/shaders/w/fs.glsl"
		},
		"vertex_mat24": {
			"type": 35633,
			"uri": "https://vr.google.com/shaders/w/glassVS.glsl"
		},
		"fragment_mat24": {
			"type": 35632,
			"uri": "https://vr.google.com/shaders/w/glassFS.glsl"
		}
	},
	"programs": {
		"program_mat17": {
			"attributes": [
				"a_position",
				"a_normal",
				"a_color"				
			],
			"vertexShader": "vertex_mat17",
			"fragmentShader": "fragment_mat17"
		},
		"program_mat24": {
			"attributes": [
				"a_position",
				"a_normal",
				"a_color"				
			],
			"vertexShader": "vertex_mat24",
			"fragmentShader": "fragment_mat24"
		}
	},
	"techniques": {
		"technique_mat17": {
			"program": "program_mat17",
			"extras": {"gvrss" : "https://vr.google.com/shaders/w/gvrss/paper.json"},
			"parameters": {
				"position": {
					"type": 35665,
					"semantic": "POSITION"
				},
				"normal": {
					"type": 35665,
					"semantic": "NORMAL"
				},
				"color": {
					"type": 35666,
					"semantic": "COLOR"
				},
				"modelViewMatrix": {
					"type": 35676,
					"semantic": "MODELVIEW"
				},
				"projectionMatrix": {
					"type": 35676,
					"semantic": "PROJECTION"
				},
				"normalMatrix": {
					"type": 35675,
					"semantic": "MODELVIEWINVERSETRANSPOSE"
				},
				"color": {
					"type": 35666
				},
				"roughness": {
					"type": 5126
				},
				"metallic": {
					"type": 5126
				},
				"light0Pos": {
					"type": 35666
				},
				"light0Color": {
					"type": 35666
				},
				"light1Pos": {
					"type": 35666
				},
				"light1Color": {
					"type": 35666
				}				
			},
			"attributes": {
				"a_position": "position",
				"a_normal": "normal",
				"a_color": "color"				
			},
			"uniforms": {
				"u_modelViewMatrix": "modelViewMatrix",
				"u_projectionMatrix": "projectionMatrix",
				"u_normalMatrix": "normalMatrix",
				"u_color": "color",
				"u_roughness": "roughness",
				"u_metallic": "metallic",
				"u_light0Pos": "light0Pos",
				"u_light0Color": "light0Color",
				"u_light1Pos": "light1Pos",
				"u_light1Color": "light1Color"				
			},
			"states": {
				"enable": [
					2929,
					2884
				],
				"functions": {
					"cullFace": [1029]
				}
			}
		},
		"technique_mat24": {
			"program": "program_mat24",
			"extras": {"gvrss" : "https://vr.google.com/shaders/w/gvrss/glass.json"},
			"parameters": {
				"position": {
					"type": 35665,
					"semantic": "POSITION"
				},
				"normal": {
					"type": 35665,
					"semantic": "NORMAL"
				},
				"color": {
					"type": 35666,
					"semantic": "COLOR"
				},
				"modelViewMatrix": {
					"type": 35676,
					"semantic": "MODELVIEW"
				},
				"projectionMatrix": {
					"type": 35676,
					"semantic": "PROJECTION"
				},
				"normalMatrix": {
					"type": 35675,
					"semantic": "MODELVIEWINVERSETRANSPOSE"
				},
				"color": {
					"type": 35666
				},
				"roughness": {
					"type": 5126
				},
				"metallic": {
					"type": 5126
				},
				"light0Pos": {
					"type": 35666
				},
				"light0Color": {
					"type": 35666
				},
				"light1Pos": {
					"type": 35666
				},
				"light1Color": {
					"type": 35666
				}				
			},
			"attributes": {
				"a_position": "position",
				"a_normal": "normal",
				"a_color": "color"				
			},
			"uniforms": {
				"u_modelViewMatrix": "modelViewMatrix",
				"u_projectionMatrix": "projectionMatrix",
				"u_normalMatrix": "normalMatrix",
				"u_color": "color",
				"u_roughness": "roughness",
				"u_metallic": "metallic",
				"u_light0Pos": "light0Pos",
				"u_light0Color": "light0Color",
				"u_light1Pos": "light1Pos",
				"u_light1Color": "light1Color"				
			},
			"states": {
				"enable": [
					2929,
					3042
				],
				"functions": {
					"blendFuncSeparate": [775, 774, 773, 772],
					"depthMask": [true]
				}
			}
		}
	},
	"materials": {
		"material_mat17": {
			"technique": "technique_mat17",
			"values": {
				"color": [0.2705882, 0.3529412, 0.3921569, 1],
				"roughness": 1,
				"metallic": 0,
				"light0Pos": [-0.02, 4.11, -0.54, 0],
				"light0Color": [1.28, 1.232075, 1.101177, 0],
				"light1Pos": [0.02, -4.11, 0.54, 0],
				"light1Color": [0.2941177, 0.2953672, 0.32, 0]				
			},
			"name": "material_mat17"
		},
		"material_mat24": {
			"technique": "technique_mat24",
			"values": {
				"color": [0.8392157, 0.8392157, 0.8392157, 0.2509804],
				"roughness": 0,
				"metallic": 0,
				"light0Pos": [-0.02, 4.11, -0.54, 0],
				"light0Color": [1.28, 1.232075, 1.101177, 0],
				"light1Pos": [0.02, -4.11, 0.54, 0],
				"light1Color": [0.2941177, 0.2953672, 0.32, 0]				
			},
			"name": "material_mat24"
		}
	},
	"nodes": {
		"node_MeshObject-425275392-PolyPaper17": {
			"name": "node_MeshObject-425275392-PolyPaper17",
			"meshes": [
				"mesh_m0-PolyPaper17_-46282"
			],
			"matrix": [1, 0, 0, 0, 0, 1, 0, 0, 0, 0, 1, 0, 0, 0, 0, 1]
		},
		"node_MeshObject146803712-PolyGlass24": {
			"name": "node_MeshObject146803712-PolyGlass24",
			"meshes": [
				"mesh_m1-PolyGlass24_-46288"
			],
			"matrix": [1, 0, 0, 0, 0, 1, 0, 0, 0, 0, 1, 0, 0, 0, 0, 1]
		}
	},
	"scene": "defaultScene",
	"scenes": {
		"defaultScene": {
			"nodes": [
				"node_MeshObject-425275392-PolyPaper17",
				"node_MeshObject146803712-PolyGlass24"
			],
			"extras": {

			}
		}
	}
}